<?xml version="1.0" encoding="utf-8"?>
<!-- Generator: Adobe Illustrator 28.0.0, SVG Export Plug-In . SVG Version: 6.00 Build 0)  -->
<svg version="1.1" xmlns="http://www.w3.org/2000/svg" xmlns:xlink="http://www.w3.org/1999/xlink" x="0px" y="0px"
	 viewBox="0 0 360 360" style="enable-background:new 0 0 360 360;" xml:space="preserve">
<style type="text/css">
	.st0{fill:none;stroke:#000000;stroke-width:5;stroke-miterlimit:10;}
	.st1{fill:none;stroke:#000000;stroke-width:3;stroke-miterlimit:10;}
</style>
<g id="Layer_1">
	<circle class="st0" cx="117.05" cy="198.05" r="45"/>
	<path class="st0" d="M156.74,176.83"/>
	<path class="st0" d="M128.73,130.76c4.35-3.01,9.63-4.77,15.32-4.77c14.92,0,27,12.09,27,27c0,1.56-0.13,3.1-0.39,4.59"/>
	<path class="st0" d="M128.1,131.2c0.21-0.15,0.42-0.3,0.63-0.45"/>
	<path class="st0" d="M127.46,131.69c0.21-0.16,0.42-0.32,0.64-0.48"/>
	<path class="st0" d="M127.46,131.69"/>
	<path class="st0" d="M117.05,152.99c0-0.28,0-0.55,0.01-0.82"/>
	<line class="st0" x1="81.29" y1="170.74" x2="81.29" y2="170.74"/>
	<line class="st0" x1="127.86" y1="131.39" x2="127.86" y2="131.39"/>
	<line class="st0" x1="127.86" y1="131.39" x2="83.54" y2="168.03"/>
	<line class="st0" x1="170.71" y1="157.28" x2="161.11" y2="207.27"/>
</g>
<g id="Layer_1_copy">
	<circle class="st0" cx="243.18" cy="198.05" r="45"/>
	<path class="st0" d="M203.5,176.83"/>
	<path class="st0" d="M231.51,130.76c-4.35-3.01-9.63-4.77-15.32-4.77c-14.92,0-27,12.09-27,27c0,1.56,0.13,3.1,0.39,4.59"/>
	<path class="st0" d="M232.14,131.2c-0.21-0.15-0.42-0.3-0.63-0.45"/>
	<path class="st0" d="M232.78,131.69c-0.21-0.16-0.42-0.32-0.64-0.48"/>
	<path class="st0" d="M232.78,131.69"/>
	<path class="st0" d="M243.19,152.99c0-0.28,0-0.55-0.01-0.82"/>
	<line class="st0" x1="278.94" y1="170.74" x2="278.94" y2="170.74"/>
	<line class="st0" x1="232.38" y1="131.39" x2="232.38" y2="131.39"/>
	<line class="st0" x1="232.38" y1="131.39" x2="276.7" y2="168.03"/>
	<line class="st0" x1="189.53" y1="157.28" x2="199.13" y2="207.27"/>
</g>
<g id="Layer_3">
	<line class="st0" x1="165.04" y1="186.79" x2="195.23" y2="186.96"/>
	<line class="st0" x1="165.91" y1="178.93" x2="193.18" y2="179.07"/>
	<line class="st0" x1="168.9" y1="166.67" x2="191.36" y2="166.8"/>
	<line class="st0" x1="167.86" y1="182.27" x2="192.25" y2="182.27"/>
</g>
<g id="Layer_4">
	<circle class="st1" cx="117.05" cy="198.05" r="36"/>
	<circle class="st1" cx="243.18" cy="198.05" r="36"/>
</g>
</svg>
